<svg xmlns="http://www.w3.org/2000/svg" width="1024" height="1024" viewBox="0 0 1024 1024">
  <rect width="1024" height="1024" fill="#F5A623"/>
  <radialGradient id="glow" cx="50%" cy="48%" r="35%">
    <stop offset="0%" stop-color="#F7BC5A" stop-opacity="0.4"/>
    <stop offset="100%" stop-color="#F5A623" stop-opacity="0"/>
  </radialGradient>
  <circle cx="512" cy="512" r="400" fill="url(#glow)"/>
  <path d="M512 240 L672 320 L672 520 Q672 660 512 740 Q352 660 352 520 L352 320 Z" fill="#FDE8C4" stroke="#8C5A0A" stroke-width="7" stroke-linejoin="round"/>
  <path d="M512 272 L648 342 L648 512 Q648 636 512 708 Q376 636 376 512 L376 342 Z" fill="none" stroke="#FEF0D8" stroke-width="2.5" stroke-linejoin="round" opacity="0.6"/>
  <!-- Glucose wave -->
  <path d="M410 440 L442 400 L472 448 L502 380 L532 440 L562 395 L592 430 L618 440" fill="none" stroke="#8C5A0A" stroke-width="15" stroke-linecap="round" stroke-linejoin="round"/>
  <path d="M410 447 L442 407 L472 455 L502 387 L532 447 L562 402 L592 437 L618 447" fill="none" stroke="#6B4408" stroke-width="15" stroke-linecap="round" stroke-linejoin="round" opacity="0.15"/>
  <!-- Worried eyebrows -->
  <path d="M438 496 Q466 484 488 500" fill="none" stroke="#8C5A0A" stroke-width="7" stroke-linecap="round"/>
  <path d="M536 500 Q558 484 586 496" fill="none" stroke="#8C5A0A" stroke-width="7" stroke-linecap="round"/>
  <!-- Eyes -->
  <circle cx="468" cy="530" r="16" fill="#8C5A0A"/>
  <circle cx="473" cy="525" r="5" fill="#FDE8C4" opacity="0.5"/>
  <circle cx="556" cy="530" r="16" fill="#8C5A0A"/>
  <circle cx="561" cy="525" r="5" fill="#FDE8C4" opacity="0.5"/>
  <!-- Slight frown -->
  <path d="M478 590 Q512 565 546 590" fill="none" stroke="#8C5A0A" stroke-width="12" stroke-linecap="round"/>
  <!-- Cheek blush -->
  <ellipse cx="432" cy="565" rx="22" ry="14" fill="#8C5A0A" opacity="0.15"/>
  <ellipse cx="592" cy="565" rx="22" ry="14" fill="#8C5A0A" opacity="0.15"/>
</svg>