<svg xmlns="http://www.w3.org/2000/svg" width="1024" height="1024" viewBox="0 0 1024 1024">
  <rect width="1024" height="1024" fill="#D93025"/>
  <radialGradient id="glow" cx="50%" cy="48%" r="35%">
    <stop offset="0%" stop-color="#EF5350" stop-opacity="0.4"/>
    <stop offset="100%" stop-color="#D93025" stop-opacity="0"/>
  </radialGradient>
  <circle cx="512" cy="512" r="400" fill="url(#glow)"/>
  <path d="M512 240 L672 320 L672 520 Q672 660 512 740 Q352 660 352 520 L352 320 Z" fill="#FCCEC8" stroke="#8B1A12" stroke-width="7" stroke-linejoin="round"/>
  <path d="M512 272 L648 342 L648 512 Q648 636 512 708 Q376 636 376 512 L376 342 Z" fill="none" stroke="#F5DBD8" stroke-width="2.5" stroke-linejoin="round" opacity="0.6"/>
  <!-- Spiky high glucose wave -->
  <path d="M410 450 L442 380 L472 455 L502 350 L532 450 L562 370 L592 435 L618 360" fill="none" stroke="#8B1A12" stroke-width="15" stroke-linecap="round" stroke-linejoin="round"/>
  <path d="M410 457 L442 387 L472 462 L502 357 L532 457 L562 377 L592 442 L618 367" fill="none" stroke="#6B110A" stroke-width="15" stroke-linecap="round" stroke-linejoin="round" opacity="0.15"/>
  <!-- Alarmed steep eyebrows -->
  <path d="M436 492 Q464 476 490 496" fill="none" stroke="#8B1A12" stroke-width="7" stroke-linecap="round"/>
  <path d="M534 496 Q560 476 588 492" fill="none" stroke="#8B1A12" stroke-width="7" stroke-linecap="round"/>
  <!-- Wide alarmed eyes -->
  <circle cx="468" cy="528" r="19" fill="#8B1A12"/>
  <circle cx="474" cy="522" r="5.5" fill="#FCCEC8" opacity="0.5"/>
  <circle cx="556" cy="528" r="19" fill="#8B1A12"/>
  <circle cx="562" cy="522" r="5.5" fill="#FCCEC8" opacity="0.5"/>
  <!-- Open mouth - alarm O -->
  <ellipse cx="512" cy="594" rx="24" ry="28" fill="#8B1A12"/>
  <ellipse cx="512" cy="594" rx="14" ry="19" fill="#FCCEC8" opacity="0.35"/>
  <!-- Cheek blush -->
  <ellipse cx="430" cy="562" rx="22" ry="14" fill="#8B1A12" opacity="0.15"/>
  <ellipse cx="594" cy="562" rx="22" ry="14" fill="#8B1A12" opacity="0.15"/>
</svg>